<?xml version="1.0" standalone="no"?>
<!DOCTYPE svg PUBLIC "-//W3C//DTD SVG 20010904//EN"
 "http://www.w3.org/TR/2001/REC-SVG-20010904/DTD/svg10.dtd">
<svg version="1.0" xmlns="http://www.w3.org/2000/svg"
 width="671.000000pt" height="654.000000pt" viewBox="0 0 671.000000 654.000000"
 preserveAspectRatio="xMidYMid meet">

<g transform="translate(0.000000,654.000000) scale(0.100000,-0.100000)"
fill="#000000" stroke="none">
<path d="M1320 6499 c-112 -20 -274 -68 -352 -106 -26 -13 -54 -23 -62 -23 -8
0 -18 -5 -21 -10 -4 -6 -25 -20 -48 -31 -102 -52 -295 -197 -373 -281 -79 -85
-173 -207 -214 -280 -24 -40 -50 -84 -60 -98 -36 -55 -114 -266 -147 -403 -16
-68 -18 -229 -20 -2670 l-3 -2597 2904 0 c2434 0 2905 2 2909 14 3 7 32 28 64
46 32 18 101 64 153 103 299 223 512 544 599 907 42 177 41 89 41 2840 l0
2610 -2632 -1 c-2518 -1 -2638 -2 -2738 -20z m2057 -1516 c3 -10 13 -26 21
-35 8 -10 12 -18 7 -18 -4 0 -2 -7 5 -15 14 -17 43 -66 66 -110 8 -16 23 -43
34 -60 11 -16 24 -39 30 -50 6 -11 23 -42 40 -70 16 -27 37 -64 46 -82 9 -18
22 -37 30 -44 8 -6 14 -17 14 -24 0 -7 7 -18 15 -25 8 -7 15 -19 15 -27 0 -8
11 -29 25 -47 14 -18 25 -36 25 -40 0 -5 14 -28 30 -53 17 -24 30 -49 30 -54
0 -6 11 -25 25 -43 14 -18 25 -38 25 -44 0 -7 4 -12 9 -12 5 0 12 -9 16 -20 3
-10 24 -50 46 -87 56 -95 57 -96 63 -113 4 -8 18 -33 31 -55 14 -22 33 -53 41
-70 21 -42 36 -66 62 -102 12 -17 22 -35 22 -41 0 -5 7 -15 15 -22 8 -7 15
-18 15 -25 0 -7 18 -40 40 -73 22 -33 40 -64 40 -70 0 -5 7 -15 15 -22 8 -7
15 -19 15 -27 0 -8 11 -29 24 -46 13 -18 33 -50 45 -72 23 -43 29 -53 78 -132
18 -28 36 -60 40 -70 3 -10 21 -40 38 -68 17 -27 34 -57 38 -65 4 -8 11 -22
16 -30 5 -8 12 -22 15 -30 4 -8 20 -35 36 -60 16 -25 34 -55 39 -67 5 -11 15
-24 20 -28 6 -3 11 -14 11 -24 0 -10 6 -24 14 -30 8 -7 22 -26 31 -44 9 -18
22 -41 28 -52 7 -11 28 -47 47 -80 19 -33 40 -69 47 -80 7 -11 15 -27 19 -35
4 -8 17 -28 28 -45 26 -37 43 -66 51 -85 4 -8 10 -22 15 -30 5 -8 28 -48 52
-89 24 -40 43 -76 43 -80 1 -5 27 -49 83 -136 6 -11 16 -29 21 -40 5 -11 25
-44 45 -74 20 -29 36 -59 36 -66 0 -8 4 -16 9 -20 6 -3 16 -18 24 -33 31 -60
53 -97 65 -110 6 -7 12 -18 12 -23 0 -5 18 -38 40 -73 22 -35 40 -66 40 -71 0
-4 9 -18 20 -32 11 -14 17 -29 14 -34 -7 -12 -4241 -12 -4248 0 -3 5 3 20 14
34 11 14 20 31 20 38 0 7 9 22 19 33 10 12 31 44 46 71 14 28 35 64 45 80 10
17 29 49 41 73 13 23 26 42 31 42 4 0 8 8 8 19 0 10 7 24 15 31 8 7 15 16 15
21 0 5 18 38 40 74 22 36 40 68 40 71 0 3 11 20 25 38 14 18 25 38 25 43 0 6
7 16 15 23 8 7 15 18 15 25 0 7 15 36 33 63 44 69 70 115 73 129 1 6 15 31 32
55 16 24 42 66 56 93 15 28 41 70 57 95 16 25 31 51 34 57 3 7 7 19 10 25 3 7
14 27 25 43 10 17 26 44 35 62 9 18 23 37 31 44 8 6 14 19 14 29 0 10 7 23 15
30 8 7 15 17 15 22 0 5 11 24 25 42 14 18 25 38 25 43 0 6 7 16 15 23 8 7 15
20 15 30 0 10 6 23 14 29 8 7 22 26 31 44 9 18 22 41 28 52 30 51 107 187 107
190 0 2 18 31 40 64 22 33 40 63 40 67 0 3 17 34 38 68 66 108 61 100 77 139
3 6 14 26 25 42 11 17 28 47 40 67 11 20 24 39 30 43 5 3 10 13 10 20 0 15 59
107 73 113 4 2 7 12 7 22 0 9 7 23 15 30 8 7 15 16 15 21 0 12 62 113 72 117
4 2 8 12 8 22 0 10 4 21 9 24 5 3 24 34 42 68 45 87 50 96 92 160 20 31 37 60
37 64 0 6 46 85 88 149 6 11 15 27 18 35 3 8 10 22 15 30 5 8 12 23 15 33 4 9
10 17 13 17 4 0 18 20 30 45 12 24 26 47 32 50 5 4 9 15 9 26 0 10 4 19 10 19
5 0 16 16 25 35 9 19 23 39 31 46 8 6 14 19 14 29 0 10 7 23 15 30 8 7 15 19
15 26 0 20 40 17 47 -3z"/>
<path d="M3253 4588 c-6 -7 -20 -29 -30 -48 -11 -19 -32 -57 -48 -85 -15 -27
-41 -75 -57 -105 -17 -30 -35 -62 -42 -70 -12 -17 -23 -35 -67 -118 -17 -31
-42 -71 -55 -89 -13 -18 -28 -40 -32 -50 -4 -10 -43 -80 -87 -156 -44 -77 -96
-167 -115 -202 -19 -34 -40 -69 -46 -76 -10 -12 -33 -53 -91 -159 -8 -14 -23
-38 -33 -55 -11 -16 -26 -44 -34 -61 -7 -17 -28 -50 -45 -74 -17 -24 -31 -47
-31 -52 0 -4 -22 -43 -48 -86 -27 -42 -55 -90 -64 -107 -39 -76 -80 -145 -89
-150 -5 -4 -9 -12 -9 -20 0 -8 -18 -40 -40 -71 -22 -32 -40 -61 -40 -66 0 -4
-25 -50 -56 -101 -30 -50 -60 -100 -65 -110 -37 -68 -53 -96 -70 -122 -10 -16
-22 -37 -26 -45 -3 -8 -21 -38 -39 -67 -18 -28 -42 -69 -54 -90 -11 -21 -30
-54 -42 -73 -11 -19 -33 -57 -48 -85 -15 -27 -46 -80 -69 -118 -22 -37 -41
-69 -41 -72 0 -2 -21 -38 -47 -80 -25 -41 -43 -78 -40 -81 7 -7 67 27 67 38 0
4 5 8 10 8 9 0 159 93 258 161 23 16 45 29 48 29 3 0 20 10 37 23 17 12 39 27
48 32 18 11 166 104 230 145 21 14 103 65 181 115 79 49 178 113 222 142 43
29 81 53 84 53 3 0 20 11 38 25 18 14 35 25 38 25 3 0 35 19 70 43 36 23 104
67 152 97 48 30 121 78 163 105 l76 51 3 924 c1 508 -2 928 -6 932 -5 5 -14 3
-19 -4z"/>
<path d="M3430 4588 c-5 -436 2 -1854 9 -1861 5 -5 18 -14 29 -21 12 -6 76
-47 144 -90 68 -43 187 -120 266 -170 79 -50 175 -111 214 -136 38 -25 87 -56
109 -70 21 -14 84 -54 140 -90 55 -36 123 -78 149 -95 27 -16 94 -59 150 -95
55 -36 118 -76 140 -90 74 -47 213 -135 239 -152 14 -10 43 -26 63 -38 20 -11
39 -24 43 -30 3 -5 11 -10 16 -10 14 0 1 39 -25 75 -13 17 -42 66 -65 109 -24
44 -54 96 -67 117 -13 21 -24 41 -24 45 0 3 -15 29 -33 57 -38 59 -141 233
-173 292 -11 22 -32 58 -44 80 -13 22 -33 58 -45 80 -12 22 -36 61 -54 86 -17
26 -31 50 -31 53 0 3 -18 34 -39 70 -22 35 -53 90 -71 122 -17 33 -35 66 -40
74 -47 74 -137 228 -142 241 -4 10 -29 53 -57 98 -28 44 -51 84 -51 87 0 3
-25 46 -55 95 -30 49 -55 92 -55 96 0 5 -18 35 -40 68 -22 33 -40 63 -40 67 0
4 -19 38 -42 75 -23 38 -53 91 -68 118 -14 28 -42 76 -63 107 -20 31 -37 59
-37 62 0 3 -18 35 -40 71 -22 36 -40 68 -40 70 0 3 -25 46 -55 96 -30 50 -55
93 -55 95 0 3 -15 29 -34 57 -19 29 -51 85 -72 125 -35 67 -54 89 -54 60z"/>
<path d="M3190 2508 c-36 -23 -77 -49 -91 -57 -40 -25 -176 -113 -230 -148
-27 -18 -51 -33 -54 -33 -2 0 -37 -22 -77 -48 -106 -71 -212 -138 -223 -143
-12 -5 -174 -110 -232 -150 -23 -16 -44 -29 -47 -29 -3 0 -25 -13 -48 -29 -24
-16 -70 -46 -103 -66 -33 -21 -78 -50 -100 -65 -22 -15 -45 -29 -50 -31 -6 -2
-51 -30 -100 -63 -50 -32 -106 -69 -125 -82 -19 -12 -55 -33 -79 -46 -23 -14
-43 -28 -42 -32 1 -5 132 -8 291 -7 l290 2 78 50 c42 28 96 64 120 80 23 16
45 29 48 29 3 0 24 13 47 29 71 48 247 161 252 161 2 0 37 22 77 48 40 27 132
86 203 131 72 46 156 101 188 122 32 21 62 39 67 39 23 0 30 49 30 209 0 130
-3 171 -12 171 -7 0 -42 -19 -78 -42z"/>
<path d="M3430 2538 c-4 -95 0 -340 5 -348 6 -9 41 -33 173 -117 31 -20 83
-53 116 -75 32 -21 60 -38 63 -38 2 0 19 -10 36 -23 18 -12 41 -27 52 -34 59
-34 221 -138 225 -143 3 -4 16 -13 30 -20 14 -7 55 -32 93 -56 37 -24 97 -63
135 -87 37 -24 92 -60 123 -80 l56 -36 284 -1 c156 -1 285 2 287 5 2 4 -13 17
-32 29 -31 18 -176 110 -296 186 -21 14 -83 53 -137 88 -54 34 -168 107 -253
162 -85 55 -171 109 -190 120 -19 11 -75 47 -125 80 -49 32 -97 63 -105 66 -8
4 -29 18 -46 31 -17 13 -34 23 -37 23 -3 0 -38 22 -79 48 -65 42 -120 78 -309
200 -55 35 -69 39 -69 20z"/>
<path d="M3279 2021 c-31 -21 -74 -49 -96 -62 -22 -13 -53 -33 -69 -43 -16
-11 -74 -48 -129 -84 -55 -35 -119 -77 -143 -93 -23 -16 -45 -29 -48 -29 -3 0
-24 -13 -47 -29 -55 -38 -188 -124 -207 -133 -44 -23 -95 -57 -92 -62 3 -9
1806 -8 1809 1 1 5 -30 27 -70 50 -40 24 -142 88 -227 142 -162 104 -301 193
-335 214 -10 7 -63 40 -117 75 -54 34 -102 62 -107 62 -5 0 -14 7 -21 15 -19
23 -40 18 -101 -24z"/>
</g>
</svg>
