<svg version="1.1" id="Layer_1" xmlns="http://www.w3.org/2000/svg" xmlns:xlink="http://www.w3.org/1999/xlink" x="0px" y="0px"
	 width="100%" viewBox="0 0 671 654" enable-background="new 0 0 671 654" xml:space="preserve">
<path fill="#E62122" opacity="1.000000" stroke="none" 
	d="
M584.000000,655.000000 
	C390.974182,655.000000 197.948334,655.000000 4.260802,654.565430 
	C3.530898,651.801941 3.403181,649.473145 3.403016,647.144287 
	C3.393461,511.658905 3.400459,376.173523 3.373428,240.688141 
	C3.372299,235.030319 2.901343,229.371826 2.927285,223.714920 
	C3.013580,204.897842 3.823197,186.062180 3.218211,167.270233 
	C2.650440,149.634247 4.491842,132.550140 9.475574,115.640625 
	C14.693075,97.937943 22.772223,81.764816 33.832565,67.064346 
	C38.668110,60.637348 43.793766,54.428623 48.973698,47.905281 
	C50.437225,46.456440 51.714741,45.223103 53.343208,43.992970 
	C68.247772,32.386501 83.279968,21.632593 100.764061,14.621160 
	C117.275330,7.999841 134.290970,3.438509 152.034180,3.419668 
	C321.969177,3.239218 491.904419,3.308964 661.839600,3.306972 
	C664.265564,3.306943 666.691528,3.306968 669.477234,3.306968 
	C669.477234,5.472730 669.477173,7.113855 669.477234,8.754981 
	C669.480835,179.356537 669.487732,349.958069 669.458130,520.559631 
	C669.457642,523.205078 669.071167,525.858032 668.755188,528.494324 
	C667.895630,535.665710 666.977112,542.830017 665.992554,550.282104 
	C665.832153,550.958679 665.761169,551.350342 665.419250,551.925720 
	C664.486206,554.737305 663.823975,557.365173 663.061829,560.280273 
	C662.881897,560.964844 662.801941,561.362122 662.404907,561.892212 
	C661.719360,563.492432 661.350891,564.959839 660.818054,566.760742 
	C660.307312,568.286194 659.960999,569.478149 659.285522,570.728027 
	C657.751709,573.865356 656.547119,576.944702 655.224609,580.349365 
	C654.462646,581.866089 653.818665,583.057434 652.841431,584.258057 
	C650.202332,588.702881 647.896545,593.138428 645.372559,597.799438 
	C644.564392,598.880859 643.974365,599.736877 643.067139,600.666626 
	C641.214661,603.187927 639.679321,605.635498 637.920654,608.303833 
	C636.885376,609.484375 636.073486,610.444153 634.947510,611.411743 
	C634.128479,612.295959 633.623535,613.172363 632.847534,614.242920 
	C619.284424,628.910217 604.571167,641.592041 587.128418,650.920410 
	C585.752014,651.656555 585.027466,653.611511 584.000000,655.000000 
M223.939529,347.938690 
	C221.380157,351.786041 218.625885,355.519806 216.303421,359.505219 
	C211.938416,366.995636 207.931030,374.694275 203.576157,382.190857 
	C198.124817,391.574890 192.366699,400.781158 186.942230,410.180267 
	C182.698746,417.533051 178.926773,425.159027 174.647217,432.489624 
	C169.170532,441.870789 163.227051,450.980347 157.787018,460.381836 
	C149.725632,474.313568 141.958618,488.415314 134.007019,502.411011 
	C130.720581,508.195465 127.280670,513.892761 123.625397,520.115112 
	C265.480743,520.115112 406.592773,520.115112 548.382263,520.115112 
	C543.747498,511.913910 539.557983,504.344879 535.220581,496.861542 
	C528.466919,485.209290 521.544006,473.654877 514.820740,461.985321 
	C508.253204,450.586151 501.916901,439.053711 495.348907,427.654785 
	C488.396271,415.588348 481.304932,403.601654 474.246460,391.596436 
	C468.501434,381.825165 462.700226,372.086945 456.951874,362.317627 
	C450.374481,351.139404 443.769257,339.976898 437.284149,328.745209 
	C430.380249,316.788300 423.651642,304.730225 416.755829,292.768585 
	C410.266174,281.511414 403.596497,270.357910 397.117188,259.094849 
	C387.873627,243.026718 378.817413,226.850418 369.520447,210.813522 
	C361.113281,196.311584 352.477905,181.942047 343.970367,167.498093 
	C341.496704,163.298309 339.116425,159.043472 336.327087,154.174561 
	C331.554657,161.744446 327.377991,168.018692 323.566040,174.507217 
	C319.108398,182.094803 315.080963,189.934357 310.662476,197.545944 
	C305.213287,206.933075 299.415161,216.118637 294.017395,225.534378 
	C286.182892,239.200775 278.685028,253.060410 270.826294,266.712555 
	C265.419617,276.105103 259.525177,285.215973 254.063751,294.578186 
	C246.879471,306.893738 239.899719,319.328674 232.845551,331.720001 
	C229.913528,336.870392 227.016373,342.040619 223.939529,347.938690 
M194.500000,524.002441 
	C311.457489,524.002441 428.414978,524.002441 545.372437,524.002441 
	C545.372009,523.771423 545.371582,523.540405 545.371094,523.309387 
	C405.790222,523.309387 266.209320,523.309387 126.628418,523.309387 
	C126.627838,523.540405 126.627251,523.771423 126.626671,524.002441 
	C148.917786,524.002441 171.208893,524.002441 194.500000,524.002441 
z"/>
<path fill="#FFFFFF" opacity="1.000000" stroke="none" 
	d="
M52.992252,43.989765 
	C51.714741,45.223103 50.437225,46.456440 48.601128,47.943066 
	C37.180172,57.764084 29.201015,69.584435 21.879251,81.889465 
	C14.669361,94.006477 9.271237,106.873894 6.027318,120.643677 
	C4.573521,126.814743 2.689039,132.884354 1.000000,139.000000 
	C1.000000,93.072746 1.000000,47.145485 1.000000,1.000000 
	C47.020664,1.000000 93.041672,1.000000 139.530182,1.281192 
	C139.840225,1.902304 139.682770,2.242224 139.116241,2.588810 
	C124.591614,4.000745 111.007225,7.671847 98.295784,13.790987 
	C87.602982,18.938383 77.193840,24.808777 67.179298,31.177103 
	C61.878090,34.548183 57.685390,39.662460 52.992252,43.989765 
z"/>
<path fill="#FFFEFE" opacity="1.000000" stroke="none" 
	d="
M659.614746,570.670105 
	C659.960999,569.478149 660.307312,568.286194 661.148926,566.670105 
	C662.003418,564.750427 662.362671,563.254944 662.721985,561.759460 
	C662.801941,561.362122 662.881897,560.964844 663.368286,560.102783 
	C664.413208,557.006042 665.051636,554.374023 665.690063,551.742004 
	C665.761169,551.350342 665.832153,550.958679 666.343384,550.115295 
	C668.163025,543.041321 669.542358,536.419128 671.195557,529.825195 
	C671.646240,529.902344 671.823120,529.951172 672.000000,530.000000 
	C672.000000,571.580078 672.000000,613.160217 672.000000,655.000000 
	C643.646301,655.000000 615.291809,655.000000 586.513855,654.649902 
	C594.541748,648.401489 603.458313,643.056580 611.315796,636.451782 
	C619.446411,629.617432 626.549255,621.560364 634.283142,613.801819 
	C634.730347,612.845032 634.995972,612.124451 635.261597,611.403931 
	C636.073486,610.444153 636.885376,609.484375 638.255066,608.230835 
	C640.336731,605.488953 641.860535,603.040894 643.384277,600.592834 
	C643.974365,599.736877 644.564392,598.880859 645.715942,597.762695 
	C648.576538,593.083313 650.875610,588.666077 653.174683,584.248779 
	C653.818665,583.057434 654.462646,581.866089 655.554260,580.264221 
	C657.206177,576.792480 658.410461,573.731323 659.614746,570.670105 
z"/>
<path fill="#F28C8D" opacity="1.000000" stroke="none" 
	d="
M1.000000,139.468658 
	C2.689039,132.884354 4.573521,126.814743 6.027318,120.643677 
	C9.271237,106.873894 14.669361,94.006477 21.879251,81.889465 
	C29.201015,69.584435 37.180172,57.764084 48.415108,48.158569 
	C43.793766,54.428623 38.668110,60.637348 33.832565,67.064346 
	C22.772223,81.764816 14.693075,97.937943 9.475574,115.640625 
	C4.491842,132.550140 2.650440,149.634247 3.218211,167.270233 
	C3.823197,186.062180 3.013580,204.897842 2.927285,223.714920 
	C2.901343,229.371826 3.372299,235.030319 3.373428,240.688141 
	C3.400459,376.173523 3.393461,511.658905 3.403016,647.144287 
	C3.403181,649.473145 3.530898,651.801941 3.799548,654.565430 
	C3.000843,655.000000 2.001687,655.000000 1.001265,655.000000 
	C1.000000,483.312439 1.000000,311.624878 1.000000,139.468658 
z"/>
<path fill="#F6B2B3" opacity="1.000000" stroke="none" 
	d="
M672.000000,529.537354 
	C671.823120,529.951172 671.646240,529.902344 671.195435,529.375244 
	C670.936096,355.097931 670.928406,181.298828 671.076172,7.499849 
	C671.080444,2.436160 669.044922,1.892210 664.856506,1.894150 
	C496.556244,1.972100 328.255920,1.953897 159.955582,1.987837 
	C153.145462,1.989210 146.335419,2.375301 139.525330,2.582145 
	C139.682770,2.242224 139.840225,1.902304 139.998840,1.281192 
	C317.262268,1.000000 494.524536,1.000000 672.000000,1.000000 
	C672.000000,177.024841 672.000000,353.049774 672.000000,529.537354 
z"/>
<path fill="#F6B2B3" opacity="1.000000" stroke="none" 
	d="
M634.101624,614.038086 
	C626.549255,621.560364 619.446411,629.617432 611.315796,636.451782 
	C603.458313,643.056580 594.541748,648.401489 586.045166,654.649902 
	C585.555542,655.000000 585.111084,655.000000 584.333313,655.000000 
	C585.027466,653.611511 585.752014,651.656555 587.128418,650.920410 
	C604.571167,641.592041 619.284424,628.910217 633.093262,614.244263 
	C633.610168,614.051514 634.101624,614.038086 634.101624,614.038086 
z"/>
<path fill="#EDE9E8" opacity="1.000000" stroke="none" 
	d="
M224.021439,347.570251 
	C227.016373,342.040619 229.913528,336.870392 232.845551,331.720001 
	C239.899719,319.328674 246.879471,306.893738 254.063751,294.578186 
	C259.525177,285.215973 265.419617,276.105103 270.826294,266.712555 
	C278.685028,253.060410 286.182892,239.200775 294.017395,225.534378 
	C299.415161,216.118637 305.213287,206.933075 310.662476,197.545944 
	C315.080963,189.934357 319.108398,182.094803 323.566040,174.507217 
	C327.377991,168.018692 331.554657,161.744446 336.327087,154.174561 
	C339.116425,159.043472 341.496704,163.298309 343.970367,167.498093 
	C352.477905,181.942047 361.113281,196.311584 369.520447,210.813522 
	C378.817413,226.850418 387.873627,243.026718 397.117188,259.094849 
	C403.596497,270.357910 410.266174,281.511414 416.755829,292.768585 
	C423.651642,304.730225 430.380249,316.788300 437.284149,328.745209 
	C443.769257,339.976898 450.374481,351.139404 456.951874,362.317627 
	C462.700226,372.086945 468.501434,381.825165 474.246460,391.596436 
	C481.304932,403.601654 488.396271,415.588348 495.348907,427.654785 
	C501.916901,439.053711 508.253204,450.586151 514.820740,461.985321 
	C521.544006,473.654877 528.466919,485.209290 535.220581,496.861542 
	C539.557983,504.344879 543.747498,511.913910 548.382263,520.115112 
	C406.592773,520.115112 265.480743,520.115112 123.625397,520.115112 
	C127.280670,513.892761 130.720581,508.195465 134.007019,502.411011 
	C141.958618,488.415314 149.725632,474.313568 157.787018,460.381836 
	C163.227051,450.980347 169.170532,441.870789 174.647217,432.489624 
	C178.926773,425.159027 182.698746,417.533051 186.942230,410.180267 
	C192.366699,400.781158 198.124817,391.574890 203.576157,382.190857 
	C207.931030,374.694275 211.938416,366.995636 216.303421,359.505219 
	C218.625885,355.519806 221.380157,351.786041 224.021439,347.570251 
M198.293610,465.582855 
	C198.454300,465.282745 198.614990,464.982635 199.437012,464.532135 
	C209.089294,458.529541 218.741592,452.526978 229.052917,446.734009 
	C229.718079,445.999512 230.383240,445.265015 231.465256,444.191742 
	C231.676224,443.912964 231.887192,443.634186 232.790848,443.234222 
	C234.503204,442.107788 236.215546,440.981354 238.545471,439.823761 
	C239.283905,439.130798 240.022354,438.437805 241.417358,437.542206 
	C246.433273,434.569733 251.449203,431.597229 257.150665,428.763397 
	C257.778320,428.210236 258.405975,427.657074 259.435669,426.550232 
	C262.359009,424.488190 265.282379,422.426117 268.799988,420.343506 
	C269.172577,420.209106 269.545135,420.074738 270.616882,419.973572 
	C271.399841,419.297668 272.182831,418.621735 273.075745,417.471527 
	C273.075745,417.471527 272.996796,416.991089 273.621735,416.919647 
	C274.513184,416.445801 275.404602,415.971954 276.923492,415.410034 
	C277.545044,414.870575 278.166595,414.331116 279.413208,413.615631 
	C280.720551,412.892944 282.027893,412.170288 284.018494,411.668152 
	C284.782654,411.210022 285.546844,410.751862 286.956696,410.135590 
	C287.624542,409.399353 288.292389,408.663116 289.268738,407.329681 
	C295.640656,403.386658 302.012573,399.443634 309.062683,395.694977 
	C309.754028,394.938538 310.445374,394.182068 311.582886,392.984070 
	C312.430908,392.401245 313.278931,391.818420 314.754486,391.305511 
	C315.161194,391.197601 315.567902,391.089691 316.687531,391.006531 
	C317.421661,390.272888 318.155762,389.539215 319.237701,388.232635 
	C322.100647,386.455292 324.963562,384.677948 328.616455,382.838654 
	C329.426788,380.703796 330.940216,378.570496 330.945038,376.433777 
	C331.080505,316.343536 331.066986,256.252899 331.053009,196.162354 
	C331.052643,194.605179 330.774475,193.048065 330.625885,191.490921 
	C330.138977,191.286026 329.652069,191.081146 329.165161,190.876251 
	C328.100922,192.233917 327.036652,193.591568 325.803436,195.429398 
	C325.721161,195.907959 325.638885,196.386520 325.042633,197.405121 
	C324.251862,198.912643 323.461090,200.420181 322.188202,202.253937 
	C322.064545,202.803040 321.940887,203.352158 321.262939,204.194107 
	C320.830566,205.126541 320.398193,206.058975 319.408325,207.223938 
	C319.156403,207.749512 318.904449,208.275101 318.120972,209.176071 
	C316.483826,211.824646 314.846649,214.473206 312.489166,217.165009 
	C311.669830,219.126892 310.850464,221.088791 309.915863,223.628677 
	C309.758881,224.195129 309.601898,224.761597 308.884521,225.641342 
	C308.487549,226.370148 308.090607,227.098969 307.247528,228.233337 
	C307.112549,228.809174 306.977570,229.385025 306.354645,230.245224 
	C306.269501,230.598648 306.184357,230.952072 305.519196,231.639404 
	C303.524841,235.260254 301.530487,238.881119 298.995148,242.850616 
	C298.808441,243.448349 298.621735,244.046082 297.940857,245.060593 
	C296.251129,248.029541 294.561401,250.998505 292.309021,254.182831 
	C292.067230,254.708237 291.825439,255.233627 291.107300,256.229431 
	C288.404785,260.879456 285.702301,265.529480 282.502014,270.481262 
	C282.000488,271.320465 281.498932,272.159637 280.328278,273.146698 
	C279.844757,274.365112 279.361237,275.583527 278.582428,277.435059 
	C278.449860,277.874146 278.317291,278.313232 277.738861,279.097809 
	C277.168762,280.548279 276.598633,281.998718 276.080994,283.528076 
	C276.080994,283.528076 276.014496,283.465424 275.260925,283.528137 
	C274.118256,285.671814 272.975616,287.815491 271.313538,290.209167 
	C270.798370,290.770111 270.283203,291.331055 269.252350,292.009247 
	C269.206787,292.681885 269.161224,293.354492 269.064575,294.629517 
	C268.671631,295.067596 268.278717,295.505646 267.214935,296.054291 
	C265.237000,299.067413 263.133484,302.006317 261.302307,305.106110 
	C251.944733,320.946655 242.580551,336.784241 233.365326,352.707703 
	C222.338882,371.760895 211.527527,390.938629 200.487595,409.983948 
	C195.594238,418.425659 190.229050,426.593628 185.327408,435.030731 
	C178.527115,446.735992 171.885590,458.535706 165.347000,470.389221 
	C163.629074,473.503510 162.541443,476.965485 160.907440,480.771667 
	C160.490967,481.149689 160.074478,481.527710 159.034027,482.104614 
	C156.856674,485.650055 154.679337,489.195496 152.501999,492.740936 
	C153.116455,493.283417 153.730911,493.825897 154.345367,494.368378 
	C158.453110,491.884338 162.667587,489.558502 166.642227,486.877167 
	C171.912857,483.321472 176.996124,479.488037 182.708939,475.281647 
	C186.918060,472.675446 191.127182,470.069214 196.034363,467.671814 
	C196.692764,467.120270 197.351151,466.568756 198.293610,465.582855 
M386.988342,478.980682 
	C385.537598,478.410858 384.086853,477.841034 382.126312,477.073608 
	C381.784332,476.960510 381.442352,476.847412 381.198059,476.274719 
	C381.198059,476.274719 381.100159,475.815216 380.919373,475.181580 
	C379.731201,474.725342 378.543060,474.269073 377.205048,473.824524 
	C377.205048,473.824524 377.165466,473.679535 376.993896,473.043762 
	C374.148743,471.324341 371.303589,469.604919 367.820404,467.621399 
	C367.168732,467.448090 366.517090,467.274780 365.492798,466.557953 
	C364.350281,465.950836 363.207733,465.343719 361.884979,464.137878 
	C360.855682,463.609558 359.826385,463.081238 358.373016,462.035828 
	C356.807037,461.186951 355.241058,460.338074 353.537170,458.969269 
	C353.340881,458.668762 353.144592,458.368256 352.846100,457.378265 
	C350.550781,456.261047 348.255463,455.143829 345.390717,453.879303 
	C344.696838,453.522003 344.002960,453.164703 343.129700,452.144196 
	C341.756531,451.420929 340.383392,450.697662 338.464264,449.361389 
	C337.950775,449.196625 337.437256,449.031860 336.631439,448.518768 
	C336.094299,448.649231 335.557190,448.779663 334.248199,449.022278 
	C332.459381,450.276825 330.670563,451.531372 328.172821,452.781494 
	C326.185028,454.229584 324.197205,455.677673 321.511963,457.256744 
	C316.458496,460.565552 311.405029,463.874359 305.666656,467.201080 
	C304.498627,468.205017 303.330597,469.208984 301.563843,470.239868 
	C301.057953,470.536835 300.552063,470.833801 299.365326,471.203888 
	C295.975647,473.543823 292.585968,475.883759 288.522430,478.338043 
	C285.372955,480.304596 282.223511,482.271149 278.451324,484.226685 
	C277.737488,484.958923 277.023621,485.691193 275.822784,486.506775 
	C275.499573,486.612701 275.232330,486.798981 274.337769,487.080902 
	C272.136444,488.686279 269.935150,490.291656 267.035309,492.033539 
	C266.315918,492.614960 265.596497,493.196350 264.186584,493.804443 
	C262.582611,494.658661 260.978638,495.512909 258.706024,496.263824 
	C258.137787,496.843048 257.569580,497.422272 256.719116,498.424530 
	C256.448822,498.841583 256.178497,499.258636 255.216904,499.759644 
	C254.008026,500.752716 252.799149,501.745758 250.967529,502.595276 
	C250.116699,503.145050 249.265869,503.694855 247.614975,504.340881 
	C246.643066,505.429108 245.671143,506.517365 244.527008,507.788208 
	C244.527008,507.788208 244.511398,508.038666 244.324844,508.705322 
	C245.961655,509.474731 247.597122,510.913452 249.235489,510.916748 
	C306.764221,511.032623 364.293182,511.013916 421.822144,511.010498 
	C422.818970,511.010437 424.020416,511.303253 424.761627,510.855530 
	C425.724823,510.273682 426.322174,509.086151 426.863678,508.095947 
	C426.863678,508.095947 426.892151,507.875305 427.599426,507.990784 
	C428.283325,507.470093 428.967224,506.949402 429.651123,506.428711 
	C428.776459,505.945770 427.901764,505.462799 426.369354,504.799316 
	C425.322479,504.391022 424.275604,503.982727 423.186676,503.183533 
	C423.186676,503.183533 423.095001,502.801239 422.982910,502.180389 
	C422.112732,501.636749 421.242523,501.093109 420.018250,499.977905 
	C417.561951,498.763336 415.105621,497.548798 412.111359,496.049805 
	C411.826019,495.764557 411.540649,495.479309 411.138702,494.563019 
	C410.255249,494.205231 409.371796,493.847473 407.872009,493.301392 
	C406.586761,492.524170 405.301483,491.746918 403.903656,490.260681 
	C402.776825,489.658600 401.650024,489.056519 399.857727,488.315887 
	C398.663208,487.708374 397.468658,487.100861 395.981934,486.019623 
	C395.345337,485.668732 394.708710,485.317841 393.948792,484.401489 
	C393.684418,484.121216 393.420044,483.840942 392.903229,482.989929 
	C392.160767,482.729248 391.418304,482.468567 390.328949,482.063477 
	C390.328949,482.063477 390.085999,481.776886 389.978821,481.156158 
	C389.106995,480.622742 388.235138,480.089325 386.988342,478.980682 
M497.086761,480.852539 
	C497.850159,481.162506 498.613556,481.472473 499.738068,481.903534 
	C499.738068,481.903534 499.937775,482.227844 500.030853,482.896027 
	C504.082397,485.209015 508.133972,487.522003 512.038086,489.961609 
	C512.038086,489.961609 512.160217,489.810425 512.176758,490.503540 
	C513.782288,492.004150 515.387756,493.504761 516.993286,495.005341 
	C517.558167,494.757202 518.122986,494.509033 518.687866,494.260864 
	C518.370911,492.257019 518.583496,489.954132 517.648865,488.299072 
	C512.595825,479.351349 507.317688,470.528351 501.993164,461.737457 
	C499.550568,457.704742 496.824493,453.843719 493.684326,449.592377 
	C492.994385,448.582214 492.304474,447.572021 491.809052,445.810242 
	C490.601379,443.840424 489.393707,441.870605 488.096741,439.893860 
	C488.096741,439.893860 488.118561,439.807007 488.125549,439.066833 
	C487.948242,438.427002 487.892365,437.718658 487.575775,437.157410 
	C480.411926,424.458160 473.253113,411.755615 465.966095,399.127167 
	C465.408203,398.160309 463.906677,397.737946 462.586639,396.921509 
	C462.586639,396.921509 462.529236,396.633942 462.713776,395.861938 
	C459.578705,390.533417 456.443665,385.204895 452.780853,379.596619 
	C452.389008,378.923035 451.997162,378.249451 451.780487,376.800354 
	C448.643066,371.504089 445.505615,366.207855 442.006866,360.673401 
	C442.006866,360.673401 441.846100,360.271606 441.878540,359.511719 
	C437.906433,352.143829 434.019104,344.728699 429.943512,337.418488 
	C422.801819,324.608673 415.596832,311.833130 408.260925,299.134155 
	C407.463898,297.754486 405.631012,296.973236 403.872925,295.597107 
	C403.746307,295.283478 403.619659,294.969849 403.703979,293.886414 
	C400.536285,288.562042 397.368591,283.237671 393.694489,277.614380 
	C393.326935,276.939545 392.959351,276.264709 392.772034,274.815033 
	C391.065765,271.256226 389.559937,267.583466 387.614349,264.160706 
	C382.462677,255.097763 377.227142,246.078293 371.812256,237.170853 
	C368.845825,232.291107 365.448669,227.673187 361.916962,222.722961 
	C361.916962,222.722961 361.800873,222.348083 361.886566,221.579514 
	C360.364105,219.010300 358.841644,216.441086 356.804474,213.662766 
	C356.455841,213.244446 356.107208,212.826126 355.864227,211.624832 
	C352.933258,203.723083 349.129059,196.364624 342.155548,189.207703 
	C341.623901,192.212051 341.033905,193.994766 341.032623,195.777908 
	C340.989685,255.713120 341.000549,315.648346 341.010986,375.583588 
	C341.012146,382.178009 344.594635,386.245972 352.095581,387.691376 
	C352.366852,387.914276 352.638123,388.137177 353.011078,389.013489 
	C357.921936,392.310455 362.762848,395.718567 367.767792,398.865936 
	C371.195648,401.021576 374.851807,402.814148 378.753632,404.885437 
	C378.753632,404.885437 378.948425,405.196136 379.095917,405.836578 
	C381.029419,407.382111 382.843628,409.113617 384.915833,410.442871 
	C398.132111,418.920563 411.367798,427.369720 424.695251,435.670624 
	C426.997192,437.104370 429.767731,437.785675 432.850464,438.978516 
	C433.204071,439.387634 433.557678,439.796783 434.066254,440.853302 
	C439.655518,444.616730 445.145050,448.541321 450.870514,452.084686 
	C454.454773,454.302856 458.394226,455.947144 462.046844,457.962708 
	C462.046844,457.962708 462.144806,457.822754 462.176422,458.521515 
	C466.201050,460.935211 470.225647,463.348938 474.046082,465.960846 
	C474.046082,465.960846 474.228394,465.742371 474.212067,466.450684 
	C481.730560,471.013031 489.249084,475.575409 496.876709,480.112030 
	C496.876709,480.112030 496.886322,480.223724 497.086761,480.852539 
M164.267578,502.882050 
	C163.587769,503.495453 162.907959,504.108856 161.540268,504.654846 
	C160.702042,505.747131 159.863831,506.839417 158.802124,508.595276 
	C158.192886,512.565735 161.362671,510.917572 162.768570,510.928253 
	C180.394775,511.062073 198.022369,511.025299 215.649551,510.994354 
	C216.884293,510.992188 218.118500,510.691162 219.760757,510.475555 
	C218.953491,509.349487 218.484985,508.695953 218.330780,507.483246 
	C219.427887,506.895172 220.524994,506.307129 221.886627,506.243347 
	C222.223816,506.622375 222.561005,507.001404 222.898193,507.380432 
	C223.068802,507.187439 223.239395,506.994415 223.410004,506.801422 
	C222.845886,506.412598 222.281754,506.023804 221.924240,504.998077 
	C239.138336,494.040863 256.387115,483.137665 273.556763,472.111206 
	C290.598541,461.166840 307.458679,449.935089 324.638519,439.214050 
	C328.337738,436.905548 329.531281,434.465240 329.434601,430.411163 
	C329.224091,421.584137 329.385925,412.748566 329.348480,403.916687 
	C329.341980,402.382324 329.104492,400.848938 328.906158,398.523285 
	C326.807617,399.661011 325.502136,400.279480 324.287231,401.042267 
	C317.399841,405.366455 310.519043,409.701538 303.663940,414.076721 
	C284.502930,426.305969 265.388489,438.608551 246.193237,450.783722 
	C228.684158,461.889374 211.037628,472.778900 193.560532,483.934204 
	C183.917618,490.089142 174.498566,496.594818 164.267578,502.882050 
M513.173706,507.270264 
	C512.465088,506.342285 511.941406,505.123260 511.016541,504.535431 
	C506.390106,501.595184 501.595184,498.919586 496.973999,495.971466 
	C465.494537,475.888855 434.048126,455.754517 402.582306,435.650574 
	C384.523621,424.112701 366.457062,412.587067 348.364471,401.102570 
	C346.929077,400.191467 345.261780,399.645599 342.916016,398.569214 
	C342.916016,410.810303 342.764343,422.102142 343.076538,433.381104 
	C343.124390,435.109863 344.980194,437.242310 346.575012,438.386169 
	C350.739105,441.372894 355.243805,443.880920 359.574310,446.640106 
	C380.571503,460.018555 401.581726,473.376801 422.534546,486.824463 
	C433.409424,493.804016 444.174866,500.954132 454.627136,508.555420 
	C452.343628,511.582611 455.167694,510.966370 456.492249,510.970459 
	C474.126038,511.024597 491.760712,511.064026 509.392700,510.877533 
	C510.608459,510.864685 511.804962,509.030548 513.173706,507.270264 
M230.569046,501.772949 
	C230.824020,501.951324 231.078995,502.129669 231.333939,502.308044 
	C231.171066,502.044159 231.008179,501.780273 230.569046,501.772949 
z"/>
<path fill="#F49E9E" opacity="1.000000" stroke="none" 
	d="
M139.116241,2.588811 
	C146.335419,2.375301 153.145462,1.989210 159.955582,1.987837 
	C328.255920,1.953897 496.556244,1.972100 664.856506,1.894150 
	C669.044922,1.892210 671.080444,2.436160 671.076172,7.499849 
	C670.928406,181.298828 670.936096,355.097931 670.921631,529.346985 
	C669.542358,536.419128 668.163025,543.041321 666.432861,549.830322 
	C666.977112,542.830017 667.895630,535.665710 668.755188,528.494324 
	C669.071167,525.858032 669.457642,523.205078 669.458130,520.559631 
	C669.487732,349.958069 669.480835,179.356537 669.477234,8.754981 
	C669.477173,7.113855 669.477234,5.472730 669.477234,3.306968 
	C666.691528,3.306968 664.265564,3.306943 661.839600,3.306972 
	C491.904419,3.308964 321.969177,3.239218 152.034180,3.419668 
	C134.290970,3.438509 117.275330,7.999841 100.764061,14.621160 
	C83.279968,21.632593 68.247772,32.386501 53.343208,43.992970 
	C57.685390,39.662460 61.878090,34.548183 67.179298,31.177103 
	C77.193840,24.808777 87.602982,18.938383 98.295784,13.790987 
	C111.007225,7.671847 124.591614,4.000745 139.116241,2.588811 
z"/>
<path fill="#E61113" opacity="1.000000" stroke="none" 
	d="
M194.000000,524.002441 
	C171.208893,524.002441 148.917786,524.002441 126.626671,524.002441 
	C126.627251,523.771423 126.627838,523.540405 126.628418,523.309387 
	C266.209320,523.309387 405.790222,523.309387 545.371094,523.309387 
	C545.371582,523.540405 545.372009,523.771423 545.372437,524.002441 
	C428.414978,524.002441 311.457489,524.002441 194.000000,524.002441 
z"/>
<path fill="#F49E9E" opacity="1.000000" stroke="none" 
	d="
M652.841431,584.258057 
	C650.875610,588.666077 648.576538,593.083313 645.934082,597.537231 
	C647.896545,593.138428 650.202332,588.702881 652.841431,584.258057 
z"/>
<path fill="#F49E9E" opacity="1.000000" stroke="none" 
	d="
M659.285522,570.728027 
	C658.410461,573.731323 657.206177,576.792480 655.672241,579.938843 
	C656.547119,576.944702 657.751709,573.865356 659.285522,570.728027 
z"/>
<path fill="#F49E9E" opacity="1.000000" stroke="none" 
	d="
M665.419189,551.925720 
	C665.051636,554.374023 664.413208,557.006042 663.468262,559.815552 
	C663.823975,557.365173 664.486206,554.737305 665.419189,551.925720 
z"/>
<path fill="#F49E9E" opacity="1.000000" stroke="none" 
	d="
M643.067139,600.666626 
	C641.860535,603.040894 640.336731,605.488953 638.478516,608.010071 
	C639.679321,605.635498 641.214661,603.187927 643.067139,600.666626 
z"/>
<path fill="#F49E9E" opacity="1.000000" stroke="none" 
	d="
M662.404846,561.892212 
	C662.362671,563.254944 662.003418,564.750427 661.313354,566.336609 
	C661.350891,564.959839 661.719360,563.492432 662.404846,561.892212 
z"/>
<path fill="#F49E9E" opacity="1.000000" stroke="none" 
	d="
M634.283142,613.801819 
	C634.101624,614.038086 633.610168,614.051514 633.364380,614.050171 
	C633.623535,613.172363 634.128479,612.295959 634.947510,611.411743 
	C634.995972,612.124451 634.730347,612.845032 634.283142,613.801819 
z"/>
<path fill="#E62324" opacity="1.000000" stroke="none" 
	d="
M378.948425,405.196136 
	C378.948425,405.196136 378.753632,404.885437 378.470642,404.498962 
	C369.761566,398.861694 361.335480,393.610901 352.909393,388.360077 
	C352.638123,388.137177 352.366852,387.914276 351.647644,387.368713 
	C348.356842,383.788574 343.270935,383.017059 343.300537,376.677460 
	C343.573944,318.074493 343.438843,259.469635 343.455475,200.865326 
	C343.455933,199.186859 343.821777,197.508469 344.017273,195.830048 
	C344.474121,195.714020 344.930939,195.598007 345.387787,195.481979 
	C346.576050,197.319901 347.807709,199.131485 348.943420,201.001312 
	C351.242645,204.786774 353.489868,208.603790 355.758545,212.407806 
	C356.107208,212.826126 356.455841,213.244446 357.066284,214.123474 
	C358.819000,217.172150 360.309937,219.760117 361.800873,222.348083 
	C361.800873,222.348083 361.916962,222.722961 362.066467,223.184479 
	C367.905090,233.669785 373.510162,243.742523 379.311096,253.701172 
	C383.605957,261.074310 388.155609,268.299042 392.591766,275.589874 
	C392.959351,276.264709 393.326935,276.939545 393.959656,278.119385 
	C397.314240,283.968323 400.403656,289.312286 403.493042,294.656219 
	C403.619659,294.969849 403.746307,295.283478 404.117737,296.100342 
	C411.989532,309.801544 419.555969,323.035034 427.265930,336.184326 
	C432.012665,344.279877 436.978577,352.246887 441.846100,360.271606 
	C441.846100,360.271606 442.006866,360.673401 442.196198,361.141418 
	C445.458801,366.931580 448.532074,372.253723 451.605347,377.575867 
	C451.997162,378.249451 452.389008,378.923035 453.047272,380.093964 
	C456.385529,385.938843 459.457397,391.286407 462.529236,396.633942 
	C462.529236,396.633942 462.586639,396.921509 462.790527,397.341888 
	C467.095154,404.768036 471.146271,411.803406 475.310333,418.771271 
	C479.521515,425.817993 483.844543,432.797852 488.118561,439.807007 
	C488.118561,439.807007 488.096741,439.893860 488.125702,440.253357 
	C489.307953,442.595856 490.461273,444.578857 491.614563,446.561829 
	C492.304474,447.572021 492.994385,448.582214 493.932861,450.113281 
	C501.514008,463.831512 508.846619,477.028900 516.822327,491.383728 
	C514.261719,490.519623 513.210938,490.165009 512.160217,489.810425 
	C512.160217,489.810425 512.038086,489.961609 512.016357,489.575165 
	C507.975647,486.868408 503.956726,484.548126 499.937775,482.227844 
	C499.937775,482.227844 499.738068,481.903534 499.433258,481.549896 
	C498.381073,480.872070 497.633698,480.547913 496.886322,480.223724 
	C496.886322,480.223724 496.876709,480.112030 496.737274,479.801453 
	C489.141357,474.908020 481.684875,470.325195 474.228394,465.742371 
	C474.228394,465.742371 474.046082,465.960846 474.059509,465.537231 
	C470.096863,462.683350 466.120819,460.253052 462.144806,457.822754 
	C462.144806,457.822754 462.046844,457.962708 461.995911,457.591583 
	C459.328766,455.533722 456.755005,453.776306 454.088043,452.174133 
	C447.384918,448.147339 440.639648,444.190674 433.911285,440.205902 
	C433.557678,439.796783 433.204071,439.387634 432.440918,438.588684 
	C421.195709,431.171692 410.434570,424.025879 399.496887,417.161316 
	C392.787170,412.950226 385.807098,409.169891 378.948425,405.196136 
z"/>
<path fill="#E62021" opacity="1.000000" stroke="none" 
	d="
M268.205719,420.364075 
	C265.282379,422.426117 262.359009,424.488190 258.908997,426.792419 
	C257.743286,427.564667 257.104187,428.094696 256.465088,428.624756 
	C251.449203,431.597229 246.433273,434.569733 240.737076,437.507874 
	C239.347153,438.267334 238.637512,439.061127 237.927887,439.854919 
	C236.215546,440.981354 234.503204,442.107788 232.284027,443.060974 
	C231.234802,443.343475 230.692413,443.799225 229.992386,444.499481 
	C229.354462,445.337463 228.874176,445.930939 228.393890,446.524414 
	C218.741592,452.526978 209.089294,458.529541 198.750214,464.484467 
	C197.394150,464.988800 196.724869,465.540771 195.922913,466.317383 
	C195.638931,466.848999 195.487610,467.156006 195.336288,467.462982 
	C191.127182,470.069214 186.918060,472.675446 182.103149,475.478821 
	C173.509949,480.615814 165.522507,485.555634 157.535065,490.495453 
	C157.209839,490.212128 156.884613,489.928772 156.559387,489.645447 
	C157.592255,487.065521 158.625122,484.485626 159.657990,481.905731 
	C160.074478,481.527710 160.490967,481.149689 161.351120,480.393250 
	C164.772705,474.879425 167.747498,469.742188 170.729111,464.608948 
	C179.269287,449.905853 187.781494,435.186401 196.362625,420.507233 
	C205.203995,405.382904 214.201981,390.349548 222.971054,375.183655 
	C233.955490,356.186279 244.804916,337.110565 255.653687,318.035187 
	C259.814697,310.718933 263.813232,303.310272 267.885773,295.943726 
	C268.278717,295.505646 268.671631,295.067596 269.314178,294.226868 
	C269.760498,293.561279 269.966888,293.306244 270.508606,293.036377 
	C271.167084,291.995514 271.500031,290.977356 271.832947,289.959167 
	C272.975616,287.815491 274.118256,285.671814 275.655518,283.674988 
	C276.067932,283.974762 276.085693,284.127686 276.103455,284.280579 
	C276.078461,284.003448 276.053497,283.726318 276.028503,283.449188 
	C276.598633,281.998718 277.168762,280.548279 278.250000,279.004211 
	C279.586792,277.675232 280.412476,276.439819 281.583130,275.042236 
	C282.285339,273.313202 282.642578,271.746368 282.999817,270.179504 
	C285.702301,265.529480 288.404785,260.879456 291.644897,256.032501 
	C292.412262,255.212875 292.641968,254.590164 292.871674,253.967453 
	C294.561401,250.998505 296.251129,248.029541 298.473267,244.896729 
	C299.182495,243.989243 299.359314,243.245605 299.536133,242.501968 
	C301.530487,238.881119 303.524841,235.260254 305.979218,231.628738 
	C306.573700,231.065674 306.708130,230.513275 306.842560,229.960876 
	C306.977570,229.385025 307.112549,228.809174 307.844299,227.994156 
	C308.775665,226.945999 309.110291,226.137024 309.444885,225.328049 
	C309.601898,224.761597 309.758881,224.195129 310.311127,223.241272 
	C311.540741,220.943176 312.375122,219.032471 313.209503,217.121780 
	C314.846649,214.473206 316.483826,211.824646 318.676056,209.023041 
	C319.476044,208.243805 319.720917,207.617615 319.965790,206.991409 
	C320.398193,206.058975 320.830566,205.126541 321.832489,204.059067 
	C322.491455,203.258575 322.580872,202.593140 322.670319,201.927704 
	C323.461090,200.420181 324.251862,198.912643 325.471252,197.516174 
	C326.308960,199.156433 327.074310,200.685364 327.075623,202.214935 
	C327.125397,260.106110 327.094879,317.997345 327.142822,375.888519 
	C327.144257,377.610291 327.870636,379.331451 328.146667,381.353363 
	C327.965027,382.069397 327.895782,382.485016 327.826508,382.900604 
	C324.963562,384.677948 322.100647,386.455292 318.769470,388.509125 
	C317.927307,388.904083 317.553375,389.022583 316.814941,389.114166 
	C315.675964,389.803375 314.901428,390.519470 314.126892,391.235535 
	C313.278931,391.818420 312.430908,392.401245 311.057739,393.203918 
	C309.816528,394.116058 309.100494,394.808319 308.384460,395.500610 
	C302.012573,399.443634 295.640656,403.386658 288.820129,407.603149 
	C287.989899,407.973694 287.608246,408.070801 286.863373,408.130615 
	C285.691620,408.770294 284.883087,409.447296 283.936920,410.339783 
	C283.644592,410.852722 283.489929,411.150177 283.335236,411.447632 
	C282.027893,412.170288 280.720551,412.892944 278.727234,413.579498 
	C277.459564,414.194977 276.877808,414.846558 276.296051,415.498138 
	C275.404602,415.971954 274.513184,416.445801 273.129913,416.757690 
	C272.148926,417.126373 271.659729,417.656982 271.162415,418.191223 
	C271.154236,418.194855 271.155060,418.208405 270.787964,418.177063 
	C269.682465,418.885162 268.944092,419.624603 268.205719,420.364075 
z"/>
<path fill="#E62526" opacity="1.000000" stroke="none" 
	d="
M454.989746,508.027161 
	C444.174866,500.954132 433.409424,493.804016 422.534546,486.824463 
	C401.581726,473.376801 380.571503,460.018555 359.574310,446.640106 
	C355.243805,443.880920 350.739105,441.372894 346.575012,438.386169 
	C344.980194,437.242310 343.124390,435.109863 343.076538,433.381104 
	C342.764343,422.102142 342.916016,410.810303 342.916016,398.569214 
	C345.261780,399.645599 346.929077,400.191467 348.364471,401.102570 
	C366.457062,412.587067 384.523621,424.112701 402.582306,435.650574 
	C434.048126,455.754517 465.494537,475.888855 496.973999,495.971466 
	C501.595184,498.919586 506.390106,501.595184 511.016541,504.535431 
	C511.941406,505.123260 512.465088,506.342285 512.623779,507.621033 
	C493.045807,507.990265 474.017792,508.008728 454.989746,508.027161 
M503.835632,506.007965 
	C504.868042,505.874695 505.900482,505.741394 506.932892,505.608124 
	C506.906647,505.382202 506.880402,505.156281 506.854126,504.930359 
	C490.449951,504.930359 474.045746,504.930359 457.641571,504.930359 
	C457.642609,505.288849 457.643646,505.647369 457.644714,506.005859 
	C472.757141,506.005859 487.869568,506.005859 503.835632,506.007965 
z"/>
<path fill="#E62526" opacity="1.000000" stroke="none" 
	d="
M159.025604,507.931732 
	C159.863831,506.839417 160.702042,505.747131 162.329987,504.869568 
	C168.048538,505.390564 172.975204,505.911530 177.906647,505.961090 
	C190.464050,506.087402 203.023605,506.003082 215.582291,506.003082 
	C215.582413,505.657990 215.582535,505.312927 215.582642,504.967834 
	C213.983215,504.967834 212.383774,504.968018 210.784332,504.967834 
	C198.176834,504.966553 185.567444,505.079193 172.963333,504.872070 
	C170.291901,504.828186 167.639679,503.616211 164.978607,502.942413 
	C174.498566,496.594818 183.917618,490.089142 193.560532,483.934204 
	C211.037628,472.778900 228.684158,461.889374 246.193237,450.783722 
	C265.388489,438.608551 284.502930,426.305969 303.663940,414.076721 
	C310.519043,409.701538 317.399841,405.366455 324.287231,401.042267 
	C325.502136,400.279480 326.807617,399.661011 328.906158,398.523285 
	C329.104492,400.848938 329.341980,402.382324 329.348480,403.916687 
	C329.385925,412.748566 329.224091,421.584137 329.434601,430.411163 
	C329.531281,434.465240 328.337738,436.905548 324.638519,439.214050 
	C307.458679,449.935089 290.598541,461.166840 273.556763,472.111206 
	C256.387115,483.137665 239.138336,494.040863 221.820297,505.363953 
	C221.716354,505.729828 221.622101,505.719086 221.622101,505.719086 
	C220.524994,506.307129 219.427887,506.895172 217.708038,507.695312 
	C197.732056,507.915527 178.378845,507.923615 159.025604,507.931732 
z"/>
<path fill="#E61E20" opacity="1.000000" stroke="none" 
	d="
M275.021118,487.065552 
	C275.232330,486.798981 275.499573,486.612701 276.415100,486.567566 
	C277.696289,485.831451 278.385162,485.034546 279.074036,484.237671 
	C282.223511,482.271149 285.372955,480.304596 289.234314,478.428131 
	C293.444885,476.236237 299.442047,477.370117 300.046204,471.130737 
	C300.552063,470.833801 301.057953,470.536835 302.296204,470.397705 
	C305.707855,470.980011 307.053650,470.090546 306.351593,467.183197 
	C311.405029,463.874359 316.458496,460.565552 322.219421,457.366943 
	C324.911804,455.913422 326.896790,454.349701 328.881744,452.785950 
	C330.670563,451.531372 332.459381,450.276825 334.664764,449.309113 
	C335.519867,450.139099 335.958374,450.682251 336.396912,451.225403 
	C336.572540,450.439301 336.748138,449.653198 336.923767,448.867096 
	C337.437256,449.031860 337.950775,449.196625 338.763062,450.035767 
	C340.477631,451.409210 341.893372,452.108276 343.309113,452.807373 
	C344.002960,453.164703 344.696838,453.522003 345.726807,454.287598 
	C347.708374,455.797791 349.353882,456.899719 351.120544,458.336548 
	C352.052826,458.944061 352.863953,459.216644 353.675079,459.489197 
	C355.241058,460.338074 356.807037,461.186951 358.615997,462.602966 
	C359.927734,463.692291 360.996460,464.214417 362.065216,464.736572 
	C363.207733,465.343719 364.350281,465.950836 365.531494,467.116272 
	C366.393158,468.107208 367.216095,468.539825 368.213806,469.249023 
	C369.971710,470.595856 371.554932,471.666107 373.133026,473.052795 
	C373.411652,473.984833 373.695404,474.600403 373.979126,475.216003 
	C374.316467,474.788513 374.653748,474.360962 375.355499,473.898163 
	C376.201782,473.801758 376.683624,473.740662 377.165466,473.679535 
	C377.165466,473.679535 377.205048,473.824524 377.179199,474.062469 
	C377.133911,474.475189 377.114532,474.649933 377.071838,475.212891 
	C377.616974,476.638855 378.185455,477.676605 378.753937,478.714355 
	C379.536102,478.054321 380.318237,477.394318 381.100403,476.734314 
	C381.442352,476.847412 381.784332,476.960510 382.455322,477.465149 
	C383.562225,478.482605 384.340179,479.108490 385.167297,480.105133 
	C386.252838,480.929596 387.289215,481.383301 388.624084,481.861511 
	C389.310333,481.849670 389.698181,481.813263 390.085999,481.776886 
	C390.085999,481.776886 390.328949,482.063477 390.395142,482.321533 
	C390.461334,482.579590 390.453369,483.008789 390.335785,483.292786 
	C390.357941,484.499451 390.497681,485.422119 390.656281,486.469360 
	C392.113068,485.828583 393.092590,485.397736 394.072113,484.966919 
	C394.708710,485.317841 395.345337,485.668732 396.008423,486.546936 
	C398.797546,492.858917 404.502045,496.247040 409.597870,495.099121 
	C409.805603,495.191833 410.139893,495.499878 410.149048,495.906006 
	C410.655670,499.615784 412.738098,500.308197 415.927429,499.642426 
	C416.843628,500.016663 417.477386,500.390991 418.083618,501.162994 
	C418.052032,502.354736 418.048004,503.148743 417.661621,504.118958 
	C415.147949,504.524597 413.016785,504.952667 410.885254,504.954285 
	C360.939850,504.992218 310.994263,505.024719 261.049225,504.888123 
	C257.894287,504.879517 254.743179,503.487366 251.590271,502.738831 
	C252.799149,501.745758 254.008026,500.752716 255.774628,499.977478 
	C261.391357,500.999664 262.645569,496.738098 264.877106,493.777771 
	C265.596497,493.196350 266.315918,492.614960 267.456665,492.289673 
	C268.280273,492.999634 268.682495,493.453461 269.084717,493.907288 
	C271.063507,491.626709 273.042297,489.346130 275.021118,487.065552 
z"/>
<path fill="#ECC2C1" opacity="1.000000" stroke="none" 
	d="
M355.811401,212.016327 
	C353.489868,208.603790 351.242645,204.786774 348.943420,201.001312 
	C347.807709,199.131485 346.576050,197.319901 345.387787,195.481979 
	C344.930939,195.598007 344.474121,195.714020 344.017273,195.830048 
	C343.821777,197.508469 343.455933,199.186859 343.455475,200.865326 
	C343.438843,259.469635 343.573944,318.074493 343.300537,376.677460 
	C343.270935,383.017059 348.356842,383.788574 351.380127,387.340973 
	C344.594635,386.245972 341.012146,382.178009 341.010986,375.583588 
	C341.000549,315.648346 340.989685,255.713120 341.032623,195.777908 
	C341.033905,193.994766 341.623901,192.212051 342.155548,189.207703 
	C349.129059,196.364624 352.933258,203.723083 355.811401,212.016327 
z"/>
<path fill="#EFFFFF" opacity="1.000000" stroke="none" 
	d="
M427.076965,508.159302 
	C426.322174,509.086151 425.724823,510.273682 424.761627,510.855530 
	C424.020416,511.303253 422.818970,511.010437 421.822144,511.010498 
	C364.293182,511.013916 306.764221,511.032623 249.235489,510.916748 
	C247.597122,510.913452 245.961655,509.474731 244.760986,508.460754 
	C245.429764,508.174835 245.662399,508.133514 246.314575,508.093384 
	C247.523453,507.883514 248.312775,507.672394 249.553284,507.562683 
	C306.645447,507.678619 363.286377,507.694489 419.927338,507.696442 
	C420.917725,507.696472 421.908081,507.529449 423.265137,507.671204 
	C424.780182,507.987762 425.928589,508.073547 427.076965,508.159302 
z"/>
<path fill="#E5080A" opacity="1.000000" stroke="none" 
	d="
M422.898468,507.440430 
	C421.908081,507.529449 420.917725,507.696472 419.927338,507.696442 
	C363.286377,507.694489 306.645447,507.678619 249.523895,507.150757 
	C248.833878,505.839783 248.624466,505.042206 248.415039,504.244629 
	C249.265869,503.694855 250.116699,503.145050 251.278900,502.667053 
	C254.743179,503.487366 257.894287,504.879517 261.049225,504.888123 
	C310.994263,505.024719 360.939850,504.992218 410.885254,504.954285 
	C413.016785,504.952667 415.147949,504.524597 417.981079,504.082214 
	C419.481506,503.555542 420.280121,503.241821 421.419250,502.938110 
	C422.204865,502.899170 422.649933,502.850189 423.095001,502.801239 
	C423.095001,502.801239 423.186676,503.183533 423.137299,503.763123 
	C423.024780,505.375275 422.961639,506.407837 422.898468,507.440430 
z"/>
<path fill="#EBBBBB" opacity="1.000000" stroke="none" 
	d="
M267.550354,295.999023 
	C263.813232,303.310272 259.814697,310.718933 255.653687,318.035187 
	C244.804916,337.110565 233.955490,356.186279 222.971054,375.183655 
	C214.201981,390.349548 205.203995,405.382904 196.362625,420.507233 
	C187.781494,435.186401 179.269287,449.905853 170.729111,464.608948 
	C167.747498,469.742188 164.772705,474.879425 161.479584,480.141296 
	C162.541443,476.965485 163.629074,473.503510 165.347000,470.389221 
	C171.885590,458.535706 178.527115,446.735992 185.327408,435.030731 
	C190.229050,426.593628 195.594238,418.425659 200.487595,409.983948 
	C211.527527,390.938629 222.338882,371.760895 233.365326,352.707703 
	C242.580551,336.784241 251.944733,320.946655 261.302307,305.106110 
	C263.133484,302.006317 265.237000,299.067413 267.550354,295.999023 
z"/>
<path fill="#EBBBBB" opacity="1.000000" stroke="none" 
	d="
M328.221497,382.869629 
	C327.895782,382.485016 327.965027,382.069397 328.457581,381.061218 
	C328.994232,379.153473 329.206451,377.838348 329.206787,376.523193 
	C329.219727,324.212524 329.212891,271.901825 329.210480,219.591141 
	C329.210144,212.760788 329.216522,205.930450 329.226776,199.100098 
	C329.230133,196.854996 329.365662,194.523544 325.972412,194.949234 
	C327.036652,193.591568 328.100922,192.233917 329.165161,190.876251 
	C329.652069,191.081146 330.138977,191.286026 330.625885,191.490921 
	C330.774475,193.048065 331.052643,194.605179 331.053009,196.162354 
	C331.066986,256.252899 331.080505,316.343536 330.945038,376.433777 
	C330.940216,378.570496 329.426788,380.703796 328.221497,382.869629 
z"/>
<path fill="#E7494A" opacity="1.000000" stroke="none" 
	d="
M325.887939,195.189316 
	C329.365662,194.523544 329.230133,196.854996 329.226776,199.100098 
	C329.216522,205.930450 329.210144,212.760788 329.210480,219.591141 
	C329.212891,271.901825 329.219727,324.212524 329.206787,376.523193 
	C329.206451,377.838348 328.994232,379.153473 328.569946,380.760742 
	C327.870636,379.331451 327.144257,377.610291 327.142822,375.888519 
	C327.094879,317.997345 327.125397,260.106110 327.075623,202.214935 
	C327.074310,200.685364 326.308960,199.156433 325.728271,197.246155 
	C325.638885,196.386520 325.721161,195.907959 325.887939,195.189316 
z"/>
<path fill="#EEFCFC" opacity="1.000000" stroke="none" 
	d="
M158.913879,508.263489 
	C178.378845,507.923615 197.732056,507.915527 217.550873,507.974915 
	C218.484985,508.695953 218.953491,509.349487 219.760757,510.475555 
	C218.118500,510.691162 216.884293,510.992188 215.649551,510.994354 
	C198.022369,511.025299 180.394775,511.062073 162.768570,510.928253 
	C161.362671,510.917572 158.192886,512.565735 158.913879,508.263489 
z"/>
<path fill="#EFFFFF" opacity="1.000000" stroke="none" 
	d="
M454.808441,508.291290 
	C474.017792,508.008728 493.045807,507.990265 512.542114,508.007568 
	C511.804962,509.030548 510.608459,510.864685 509.392700,510.877533 
	C491.760712,511.064026 474.126038,511.024597 456.492249,510.970459 
	C455.167694,510.966370 452.343628,511.582611 454.808441,508.291290 
z"/>
<path fill="#ECC2C1" opacity="1.000000" stroke="none" 
	d="
M441.862305,359.891663 
	C436.978577,352.246887 432.012665,344.279877 427.265930,336.184326 
	C419.555969,323.035034 411.989532,309.801544 404.320557,296.259003 
	C405.631012,296.973236 407.463898,297.754486 408.260925,299.134155 
	C415.596832,311.833130 422.801819,324.608673 429.943512,337.418488 
	C434.019104,344.728699 437.906433,352.143829 441.862305,359.891663 
z"/>
<path fill="#ECC2C1" opacity="1.000000" stroke="none" 
	d="
M379.022156,405.516357 
	C385.807098,409.169891 392.787170,412.950226 399.496887,417.161316 
	C410.434570,424.025879 421.195709,431.171692 432.176575,438.506683 
	C429.767731,437.785675 426.997192,437.104370 424.695251,435.670624 
	C411.367798,427.369720 398.132111,418.920563 384.915833,410.442871 
	C382.843628,409.113617 381.029419,407.382111 379.022156,405.516357 
z"/>
<path fill="#ECC2C1" opacity="1.000000" stroke="none" 
	d="
M512.168457,490.156982 
	C513.210938,490.165009 514.261719,490.519623 516.822327,491.383728 
	C508.846619,477.028900 501.514008,463.831512 494.204224,450.269470 
	C496.824493,453.843719 499.550568,457.704742 501.993164,461.737457 
	C507.317688,470.528351 512.595825,479.351349 517.648865,488.299072 
	C518.583496,489.954132 518.370911,492.257019 518.687866,494.260864 
	C518.122986,494.509033 517.558167,494.757202 516.993286,495.005341 
	C515.387756,493.504761 513.782288,492.004150 512.168457,490.156982 
z"/>
<path fill="#ECC2C1" opacity="1.000000" stroke="none" 
	d="
M392.681885,275.202454 
	C388.155609,268.299042 383.605957,261.074310 379.311096,253.701172 
	C373.510162,243.742523 367.905090,233.669785 362.230835,223.291595 
	C365.448669,227.673187 368.845825,232.291107 371.812256,237.170853 
	C377.227142,246.078293 382.462677,255.097763 387.614349,264.160706 
	C389.559937,267.583466 391.065765,271.256226 392.681885,275.202454 
z"/>
<path fill="#EBBBBB" opacity="1.000000" stroke="none" 
	d="
M159.346008,482.005188 
	C158.625122,484.485626 157.592255,487.065521 156.559387,489.645447 
	C156.884613,489.928772 157.209839,490.212128 157.535065,490.495453 
	C165.522507,485.555634 173.509949,480.615814 181.828629,475.724976 
	C176.996124,479.488037 171.912857,483.321472 166.642227,486.877167 
	C162.667587,489.558502 158.453110,491.884338 154.345367,494.368378 
	C153.730911,493.825897 153.116455,493.283417 152.501999,492.740936 
	C154.679337,489.195496 156.856674,485.650055 159.346008,482.005188 
z"/>
<path fill="#ECC2C1" opacity="1.000000" stroke="none" 
	d="
M488.122070,439.436920 
	C483.844543,432.797852 479.521515,425.817993 475.310333,418.771271 
	C471.146271,411.803406 467.095154,404.768036 462.919128,397.412354 
	C463.906677,397.737946 465.408203,398.160309 465.966095,399.127167 
	C473.253113,411.755615 480.411926,424.458160 487.575775,437.157410 
	C487.892365,437.718658 487.948242,438.427002 488.122070,439.436920 
z"/>
<path fill="#ECC2C1" opacity="1.000000" stroke="none" 
	d="
M433.988770,440.529602 
	C440.639648,444.190674 447.384918,448.147339 454.088043,452.174133 
	C456.755005,453.776306 459.328766,455.533722 462.059631,457.534698 
	C458.394226,455.947144 454.454773,454.302856 450.870514,452.084686 
	C445.145050,448.541321 439.655518,444.616730 433.988770,440.529602 
z"/>
<path fill="#E5080A" opacity="1.000000" stroke="none" 
	d="
M164.623093,502.912231 
	C167.639679,503.616211 170.291901,504.828186 172.963333,504.872070 
	C185.567444,505.079193 198.176834,504.966553 210.784332,504.967834 
	C212.383774,504.968018 213.983215,504.967834 215.582642,504.967834 
	C215.582535,505.312927 215.582413,505.657990 215.582291,506.003082 
	C203.023605,506.003082 190.464050,506.087402 177.906647,505.961090 
	C172.975204,505.911530 168.048538,505.390564 162.673920,504.903320 
	C162.907959,504.108856 163.587769,503.495453 164.623093,502.912231 
z"/>
<path fill="#ECC2C1" opacity="1.000000" stroke="none" 
	d="
M352.960236,388.686768 
	C361.335480,393.610901 369.761566,398.861694 378.296753,404.440796 
	C374.851807,402.814148 371.195648,401.021576 367.767792,398.865936 
	C362.762848,395.718567 357.921936,392.310455 352.960236,388.686768 
z"/>
<path fill="#ECC2C1" opacity="1.000000" stroke="none" 
	d="
M474.220215,466.096527 
	C481.684875,470.325195 489.141357,474.908020 496.682709,479.814301 
	C489.249084,475.575409 481.730560,471.013031 474.220215,466.096527 
z"/>
<path fill="#E73132" opacity="1.000000" stroke="none" 
	d="
M409.390137,495.006409 
	C404.502045,496.247040 398.797546,492.858917 396.154541,486.783783 
	C397.468658,487.100861 398.663208,487.708374 400.332031,488.675232 
	C401.876282,489.679626 402.946259,490.324646 404.016235,490.969696 
	C405.301483,491.746918 406.586761,492.524170 408.239594,493.612366 
	C408.868164,494.284332 409.129150,494.645386 409.390137,495.006409 
z"/>
<path fill="#ECC2C1" opacity="1.000000" stroke="none" 
	d="
M451.692932,377.188110 
	C448.532074,372.253723 445.458801,366.931580 442.376831,361.260529 
	C445.505615,366.207855 448.643066,371.504089 451.692932,377.188110 
z"/>
<path fill="#ECC2C1" opacity="1.000000" stroke="none" 
	d="
M462.621521,396.247925 
	C459.457397,391.286407 456.385529,385.938843 453.311157,380.233826 
	C456.443665,385.204895 459.578705,390.533417 462.621521,396.247925 
z"/>
<path fill="#ECC2C1" opacity="1.000000" stroke="none" 
	d="
M403.598511,294.271301 
	C400.403656,289.312286 397.314240,283.968323 394.212891,278.268860 
	C397.368591,283.237671 400.536285,288.562042 403.598511,294.271301 
z"/>
<path fill="#ECC2C1" opacity="1.000000" stroke="none" 
	d="
M499.984314,482.561951 
	C503.956726,484.548126 507.975647,486.868408 512.090088,489.511841 
	C508.133972,487.522003 504.082397,485.209015 499.984314,482.561951 
z"/>
<path fill="#ECC2C1" opacity="1.000000" stroke="none" 
	d="
M462.160614,458.172119 
	C466.120819,460.253052 470.096863,462.683350 474.161591,465.438110 
	C470.225647,463.348938 466.201050,460.935211 462.160614,458.172119 
z"/>
<path fill="#E7494A" opacity="1.000000" stroke="none" 
	d="
M264.531860,493.791107 
	C262.645569,496.738098 261.391357,500.999664 256.120300,499.935516 
	C256.178497,499.258636 256.448822,498.841583 257.161713,498.175781 
	C258.194458,497.407074 258.784576,496.887115 259.374695,496.367126 
	C260.978638,495.512909 262.582611,494.658661 264.531860,493.791107 
z"/>
<path fill="#E7494A" opacity="1.000000" stroke="none" 
	d="
M299.705750,471.167328 
	C299.442047,477.370117 293.444885,476.236237 289.571228,478.370972 
	C292.585968,475.883759 295.975647,473.543823 299.705750,471.167328 
z"/>
<path fill="#EBAEAE" opacity="1.000000" stroke="none" 
	d="
M377.079681,473.361633 
	C376.683624,473.740662 376.201782,473.801758 375.123596,473.742249 
	C374.064209,473.326538 373.601166,473.031464 373.138123,472.736389 
	C371.554932,471.666107 369.971710,470.595856 368.321716,468.978516 
	C368.322754,468.249451 368.390564,468.067505 368.458405,467.885498 
	C371.303589,469.604919 374.148743,471.324341 377.079681,473.361633 
z"/>
<path fill="#E7494A" opacity="1.000000" stroke="none" 
	d="
M274.679443,487.073242 
	C273.042297,489.346130 271.063507,491.626709 269.084717,493.907288 
	C268.682495,493.453461 268.280273,492.999634 267.805969,492.221436 
	C269.935150,490.291656 272.136444,488.686279 274.679443,487.073242 
z"/>
<path fill="#EBAEAE" opacity="1.000000" stroke="none" 
	d="
M418.111115,500.765259 
	C417.477386,500.390991 416.843628,500.016663 415.774689,499.350952 
	C414.442749,498.151123 413.546051,497.242706 412.649323,496.334259 
	C415.105621,497.548798 417.561951,498.763336 420.085083,500.397217 
	C420.151947,500.816498 419.934143,501.079437 419.629517,501.027252 
	C418.920319,500.905151 418.515717,500.835205 418.111115,500.765259 
z"/>
<path fill="#EBAEAE" opacity="1.000000" stroke="none" 
	d="
M350.999359,458.001648 
	C349.353882,456.899719 347.708374,455.797791 346.011536,454.361237 
	C348.255463,455.143829 350.550781,456.261047 352.570251,457.706390 
	C351.862701,458.023560 351.431030,458.012634 350.999359,458.001648 
z"/>
<path fill="#E73132" opacity="1.000000" stroke="none" 
	d="
M423.265137,507.671204 
	C422.961639,506.407837 423.024780,505.375275 423.158325,503.958557 
	C424.275604,503.982727 425.322479,504.391022 426.748718,505.139221 
	C427.049469,506.277832 426.970825,507.076569 426.892151,507.875305 
	C426.892151,507.875305 426.863678,508.095947 426.970337,508.127625 
	C425.928589,508.073547 424.780182,507.987762 423.265137,507.671204 
z"/>
<path fill="#ECC2C1" opacity="1.000000" stroke="none" 
	d="
M361.843719,221.963806 
	C360.309937,219.760117 358.819000,217.172150 357.323639,214.228027 
	C358.841644,216.441086 360.364105,219.010300 361.843719,221.963806 
z"/>
<path fill="#E7494A" opacity="1.000000" stroke="none" 
	d="
M328.527283,452.783722 
	C326.896790,454.349701 324.911804,455.913422 322.568115,457.301453 
	C324.197205,455.677673 326.185028,454.229584 328.527283,452.783722 
z"/>
<path fill="#E73132" opacity="1.000000" stroke="none" 
	d="
M381.149231,476.504517 
	C380.318237,477.394318 379.536102,478.054321 378.753937,478.714355 
	C378.185455,477.676605 377.616974,476.638855 377.412262,475.282440 
	C378.884094,475.247620 379.992126,475.531403 381.100159,475.815186 
	C381.100159,475.815216 381.198059,476.274719 381.149231,476.504517 
z"/>
<path fill="#E73132" opacity="1.000000" stroke="none" 
	d="
M412.380341,496.192017 
	C413.546051,497.242706 414.442749,498.151123 415.492188,499.351013 
	C412.738098,500.308197 410.655670,499.615784 410.436615,495.862488 
	C410.895081,495.339935 411.075195,495.266998 411.255310,495.194061 
	C411.540649,495.479309 411.826019,495.764557 412.380341,496.192017 
z"/>
<path fill="#ECC2C1" opacity="1.000000" stroke="none" 
	d="
M491.711792,446.186035 
	C490.461273,444.578857 489.307953,442.595856 488.170349,440.256836 
	C489.393707,441.870605 490.601379,443.840424 491.711792,446.186035 
z"/>
<path fill="#E74A4B" opacity="1.000000" stroke="none" 
	d="
M282.750916,270.330383 
	C282.642578,271.746368 282.285339,273.313202 281.457245,274.938416 
	C280.986420,274.996735 280.735046,274.788574 280.796021,274.491272 
	C280.903809,273.795624 280.950623,273.397217 280.997406,272.998840 
	C281.498932,272.159637 282.000488,271.320465 282.750916,270.330383 
z"/>
<path fill="#E7494A" opacity="1.000000" stroke="none" 
	d="
M306.009125,467.192139 
	C307.053650,470.090546 305.707855,470.980011 302.595581,470.384247 
	C303.330597,469.208984 304.498627,468.205017 306.009125,467.192139 
z"/>
<path fill="#EBBBBB" opacity="1.000000" stroke="none" 
	d="
M312.849335,217.143402 
	C312.375122,219.032471 311.540741,220.943176 310.368774,222.952271 
	C310.850464,221.088791 311.669830,219.126892 312.849335,217.143402 
z"/>
<path fill="#E73132" opacity="1.000000" stroke="none" 
	d="
M248.015015,504.292755 
	C248.624466,505.042206 248.833878,505.839783 249.072693,507.049316 
	C248.312775,507.672394 247.523453,507.883514 246.183868,507.883606 
	C245.337097,507.441650 245.025635,507.419342 244.699219,507.605591 
	C245.671143,506.517365 246.643066,505.429108 248.015015,504.292755 
z"/>
<path fill="#E74A4B" opacity="1.000000" stroke="none" 
	d="
M361.975098,464.437225 
	C360.996460,464.214417 359.927734,463.692291 358.828033,462.861542 
	C359.826385,463.081238 360.855682,463.609558 361.975098,464.437225 
z"/>
<path fill="#E73132" opacity="1.000000" stroke="none" 
	d="
M394.010437,484.684204 
	C393.092590,485.397736 392.113068,485.828583 390.656281,486.469360 
	C390.497681,485.422119 390.357941,484.499451 390.661499,483.436005 
	C391.788422,483.383667 392.472076,483.472168 393.155701,483.560638 
	C393.420044,483.840942 393.684418,484.121216 394.010437,484.684204 
z"/>
<path fill="#EBAEAE" opacity="1.000000" stroke="none" 
	d="
M403.959961,490.615173 
	C402.946259,490.324646 401.876282,489.679626 400.664734,488.744507 
	C401.650024,489.056519 402.776825,489.658600 403.959961,490.615173 
z"/>
<path fill="#EBAEAE" opacity="1.000000" stroke="none" 
	d="
M385.118103,479.734344 
	C384.340179,479.108490 383.562225,478.482605 382.710205,477.563965 
	C384.086853,477.841034 385.537598,478.410858 387.060699,479.409515 
	C387.133057,479.838348 386.904510,480.116150 386.603943,480.062714 
	C385.908295,479.917633 385.513184,479.825989 385.118103,479.734344 
z"/>
<path fill="#EBAEAE" opacity="1.000000" stroke="none" 
	d="
M427.245789,507.933044 
	C426.970825,507.076569 427.049469,506.277832 427.077606,505.229492 
	C427.901764,505.462799 428.776459,505.945770 429.651123,506.428711 
	C428.967224,506.949402 428.283325,507.470093 427.245789,507.933044 
z"/>
<path fill="#E74A4B" opacity="1.000000" stroke="none" 
	d="
M281.112305,275.100586 
	C280.412476,276.439819 279.586792,277.675232 278.472900,278.831482 
	C278.317291,278.313232 278.449860,277.874146 278.981262,276.998077 
	C279.831726,275.970245 280.283386,275.379395 280.735046,274.788574 
	C280.735046,274.788574 280.986420,274.996735 281.112305,275.100586 
z"/>
<path fill="#E74A4B" opacity="1.000000" stroke="none" 
	d="
M271.573242,290.084167 
	C271.500031,290.977356 271.167084,291.995514 270.401184,292.745850 
	C269.901428,292.282684 269.834717,292.087311 269.768005,291.891968 
	C270.283203,291.331055 270.798370,290.770111 271.573242,290.084167 
z"/>
<path fill="#E7494A" opacity="1.000000" stroke="none" 
	d="
M343.219421,452.475769 
	C341.893372,452.108276 340.477631,451.409210 339.036072,450.342255 
	C340.383392,450.697662 341.756531,451.420929 343.219421,452.475769 
z"/>
<path fill="#E7494A" opacity="1.000000" stroke="none" 
	d="
M336.777588,448.692932 
	C336.748138,449.653198 336.572540,450.439301 336.396912,451.225403 
	C335.958374,450.682251 335.519867,450.139099 335.050690,449.253021 
	C335.557190,448.779663 336.094299,448.649231 336.777588,448.692932 
z"/>
<path fill="#EBBBBB" opacity="1.000000" stroke="none" 
	d="
M280.796021,274.491272 
	C280.283386,275.379395 279.831726,275.970245 279.128906,276.681519 
	C279.361237,275.583527 279.844757,274.365112 280.662842,273.072754 
	C280.950623,273.397217 280.903809,273.795624 280.796021,274.491272 
z"/>
<path fill="#EBAEAE" opacity="1.000000" stroke="none" 
	d="
M381.009766,475.498383 
	C379.992126,475.531403 378.884094,475.247620 377.435608,474.894257 
	C377.114532,474.649933 377.133911,474.475189 377.254089,474.056641 
	C378.543060,474.269073 379.731201,474.725342 381.009766,475.498383 
z"/>
<path fill="#EBAEAE" opacity="1.000000" stroke="none" 
	d="
M411.197021,494.878540 
	C411.075195,495.266998 410.895081,495.339935 410.427429,495.456360 
	C410.139893,495.499878 409.805603,495.191833 409.597870,495.099121 
	C409.129150,494.645386 408.868164,494.284332 408.547729,493.706512 
	C409.371796,493.847473 410.255249,494.205231 411.197021,494.878540 
z"/>
<path fill="#EBBBBB" opacity="1.000000" stroke="none" 
	d="
M287.226562,408.167908 
	C287.608246,408.070801 287.989899,407.973694 288.665894,407.901733 
	C288.292389,408.663116 287.624542,409.399353 286.526825,410.107727 
	C286.096954,410.079865 285.888885,409.865326 286.046936,409.643921 
	C286.545502,409.004303 286.886017,408.586090 287.226562,408.167908 
z"/>
<path fill="#E7494A" opacity="1.000000" stroke="none" 
	d="
M268.502869,420.353790 
	C268.944092,419.624603 269.682465,418.885162 270.670227,418.419312 
	C270.585632,419.108734 270.251678,419.524536 269.917694,419.940369 
	C269.545135,420.074738 269.172577,420.209106 268.502869,420.353790 
z"/>
<path fill="#EBAEAE" opacity="1.000000" stroke="none" 
	d="
M423.038940,502.490814 
	C422.649933,502.850189 422.204865,502.899170 421.321472,502.681824 
	C420.566833,501.970154 420.250488,501.524780 419.934143,501.079407 
	C419.934143,501.079437 420.151947,500.816498 420.262146,500.682983 
	C421.242523,501.093109 422.112732,501.636749 423.038940,502.490814 
z"/>
<path fill="#EBBBBB" opacity="1.000000" stroke="none" 
	d="
M228.723419,446.629211 
	C228.874176,445.930939 229.354462,445.337463 230.215286,444.573547 
	C230.595840,444.403137 231.048386,444.530518 231.048386,444.530518 
	C230.383240,445.265015 229.718079,445.999512 228.723419,446.629211 
z"/>
<path fill="#E7494A" opacity="1.000000" stroke="none" 
	d="
M278.762695,484.232178 
	C278.385162,485.034546 277.696289,485.831451 276.658600,486.525879 
	C277.023621,485.691193 277.737488,484.958923 278.762695,484.232178 
z"/>
<path fill="#EBAEAE" opacity="1.000000" stroke="none" 
	d="
M390.032410,481.466522 
	C389.698181,481.813263 389.310333,481.849670 388.471649,481.624939 
	C387.648682,480.947937 387.276611,480.532043 386.904541,480.116150 
	C386.904510,480.116150 387.133057,479.838348 387.248169,479.697144 
	C388.235138,480.089325 389.106995,480.622742 390.032410,481.466522 
z"/>
<path fill="#E7494A" opacity="1.000000" stroke="none" 
	d="
M314.440674,391.270508 
	C314.901428,390.519470 315.675964,389.803375 316.690308,389.363159 
	C316.611664,390.086578 316.293121,390.534180 315.974609,390.981750 
	C315.567902,391.089691 315.161194,391.197601 314.440674,391.270508 
z"/>
<path fill="#EBBBBB" opacity="1.000000" stroke="none" 
	d="
M270.267273,419.956970 
	C270.251678,419.524536 270.585632,419.108734 271.037354,418.450684 
	C271.155060,418.208405 271.154236,418.194855 271.464417,418.167847 
	C272.171631,418.075806 272.568726,418.010834 272.965790,417.945831 
	C272.182831,418.621735 271.399841,419.297668 270.267273,419.956970 
z"/>
<path fill="#E7494A" opacity="1.000000" stroke="none" 
	d="
M238.236664,439.839325 
	C238.637512,439.061127 239.347153,438.267334 240.408798,437.609192 
	C240.022354,438.437805 239.283905,439.130798 238.236664,439.839325 
z"/>
<path fill="#E74A4B" opacity="1.000000" stroke="none" 
	d="
M368.139404,467.753479 
	C368.390564,468.067505 368.322754,468.249451 368.147003,468.701935 
	C367.216095,468.539825 366.393158,468.107208 365.717804,467.388031 
	C366.517090,467.274780 367.168732,467.448090 368.139404,467.753479 
z"/>
<path fill="#EBBBBB" opacity="1.000000" stroke="none" 
	d="
M316.331055,390.994141 
	C316.293121,390.534180 316.611664,390.086578 317.054810,389.390015 
	C317.553375,389.022583 317.927307,388.904083 318.595581,388.795593 
	C318.155762,389.539215 317.421661,390.272888 316.331055,390.994141 
z"/>
<path fill="#EBBBBB" opacity="1.000000" stroke="none" 
	d="
M308.723572,395.597778 
	C309.100494,394.808319 309.816528,394.116058 310.834656,393.424713 
	C310.445374,394.182068 309.754028,394.938538 308.723572,395.597778 
z"/>
<path fill="#EEFCFC" opacity="1.000000" stroke="none" 
	d="
M221.716995,505.682404 
	C222.281754,506.023804 222.845886,506.412598 223.410004,506.801422 
	C223.239395,506.994415 223.068802,507.187439 222.898193,507.380432 
	C222.561005,507.001404 222.223816,506.622375 221.754364,505.981201 
	C221.622101,505.719086 221.716354,505.729828 221.716995,505.682404 
z"/>
<path fill="#E74A4B" opacity="1.000000" stroke="none" 
	d="
M309.164703,225.484695 
	C309.110291,226.137024 308.775665,226.945999 308.067352,227.791382 
	C308.090607,227.098969 308.487549,226.370148 309.164703,225.484695 
z"/>
<path fill="#E7494A" opacity="1.000000" stroke="none" 
	d="
M322.429260,202.090820 
	C322.580872,202.593140 322.491455,203.258575 322.109619,203.912643 
	C321.940887,203.352158 322.064545,202.803040 322.429260,202.090820 
z"/>
<path fill="#E7494A" opacity="1.000000" stroke="none" 
	d="
M319.687073,207.107666 
	C319.720917,207.617615 319.476044,208.243805 318.941833,208.835342 
	C318.904449,208.275101 319.156403,207.749512 319.687073,207.107666 
z"/>
<path fill="#EEFCFC" opacity="1.000000" stroke="none" 
	d="
M230.707169,501.644653 
	C231.008179,501.780273 231.171066,502.044159 231.333954,502.308044 
	C231.078995,502.129669 230.824020,501.951324 230.707169,501.644653 
z"/>
<path fill="#EBBBBB" opacity="1.000000" stroke="none" 
	d="
M269.510193,291.950623 
	C269.834717,292.087311 269.901428,292.282684 270.075592,292.768555 
	C269.966888,293.306244 269.760498,293.561279 269.339722,293.925659 
	C269.161224,293.354492 269.206787,292.681885 269.510193,291.950623 
z"/>
<path fill="#E74A4B" opacity="1.000000" stroke="none" 
	d="
M292.590332,254.075134 
	C292.641968,254.590164 292.412262,255.212875 291.883057,255.797302 
	C291.825439,255.233627 292.067230,254.708237 292.590332,254.075134 
z"/>
<path fill="#EBBBBB" opacity="1.000000" stroke="none" 
	d="
M283.676880,411.557892 
	C283.489929,411.150177 283.644592,410.852722 284.243591,410.333771 
	C285.088226,410.029968 285.488556,409.947632 285.888885,409.865326 
	C285.888885,409.865326 286.096954,410.079865 286.203979,410.186798 
	C285.546844,410.751862 284.782654,411.210022 283.676880,411.557892 
z"/>
<path fill="#E7494A" opacity="1.000000" stroke="none" 
	d="
M276.609772,415.454102 
	C276.877808,414.846558 277.459564,414.194977 278.414734,413.667511 
	C278.166595,414.331116 277.545044,414.870575 276.609772,415.454102 
z"/>
<path fill="#E7494A" opacity="1.000000" stroke="none" 
	d="
M273.020752,417.708679 
	C272.568726,418.010834 272.171631,418.075806 271.472565,418.164215 
	C271.659729,417.656982 272.148926,417.126373 272.817444,416.793396 
	C272.996796,416.991089 273.075745,417.471527 273.020752,417.708679 
z"/>
<path fill="#EBBBBB" opacity="1.000000" stroke="none" 
	d="
M256.807861,428.694061 
	C257.104187,428.094696 257.743286,427.564667 258.708008,427.069275 
	C258.405975,427.657074 257.778320,428.210236 256.807861,428.694061 
z"/>
<path fill="#E7494A" opacity="1.000000" stroke="none" 
	d="
M231.256821,444.361145 
	C231.048386,444.530518 230.595840,444.403137 230.372940,444.329041 
	C230.692413,443.799225 231.234802,443.343475 231.937683,443.121582 
	C231.887192,443.634186 231.676224,443.912964 231.256821,444.361145 
z"/>
<path fill="#E74A4B" opacity="1.000000" stroke="none" 
	d="
M351.120544,458.336578 
	C351.431030,458.012634 351.862701,458.023560 352.621338,458.051117 
	C353.144592,458.368256 353.340881,458.668762 353.606140,459.229248 
	C352.863953,459.216644 352.052826,458.944061 351.120544,458.336578 
z"/>
<path fill="#E7494A" opacity="1.000000" stroke="none" 
	d="
M196.055588,466.092773 
	C196.724869,465.540771 197.394150,464.988800 198.419556,464.559662 
	C198.614990,464.982635 198.454300,465.282745 197.824738,465.792206 
	C196.922424,466.031952 196.489014,466.062378 196.055588,466.092773 
z"/>
<path fill="#EBBBBB" opacity="1.000000" stroke="none" 
	d="
M195.922913,466.317383 
	C196.489014,466.062378 196.922424,466.031952 197.682709,466.009399 
	C197.351151,466.568756 196.692764,467.120270 195.685333,467.567383 
	C195.487610,467.156006 195.638931,466.848999 195.922913,466.317383 
z"/>
<path fill="#ECC2C1" opacity="1.000000" stroke="none" 
	d="
M496.986542,480.538147 
	C497.633698,480.547913 498.381073,480.872070 499.252716,481.489319 
	C498.613556,481.472473 497.850159,481.162506 496.986542,480.538147 
z"/>
<path fill="#EBAEAE" opacity="1.000000" stroke="none" 
	d="
M393.029480,483.275269 
	C392.472076,483.472168 391.788422,483.383667 390.779083,483.151978 
	C390.453369,483.008789 390.461334,482.579590 390.568604,482.393738 
	C391.418304,482.468567 392.160767,482.729248 393.029480,483.275269 
z"/>
<path fill="#EBB0B1" opacity="1.000000" stroke="none" 
	d="
M259.040344,496.315491 
	C258.784576,496.887115 258.194458,497.407074 257.302856,497.964233 
	C257.569580,497.422272 258.137787,496.843048 259.040344,496.315491 
z"/>
<path fill="#E74A4B" opacity="1.000000" stroke="none" 
	d="
M306.598602,230.103058 
	C306.708130,230.513275 306.573700,231.065674 306.269226,231.461792 
	C306.184357,230.952072 306.269501,230.598648 306.598602,230.103058 
z"/>
<path fill="#E74A4B" opacity="1.000000" stroke="none" 
	d="
M299.265625,242.676300 
	C299.359314,243.245605 299.182495,243.989243 298.720337,244.688354 
	C298.621735,244.046082 298.808441,243.448349 299.265625,242.676300 
z"/>
<path fill="#EBB0B1" opacity="1.000000" stroke="none" 
	d="
M244.613098,507.696899 
	C245.025635,507.419342 245.337097,507.441650 245.764313,507.882355 
	C245.662399,508.133514 245.429764,508.174835 244.854279,508.127411 
	C244.511398,508.038666 244.527008,507.788208 244.613098,507.696899 
z"/>
<path fill="#E7494A" opacity="1.000000" stroke="none" 
	d="
M286.046936,409.643921 
	C285.488556,409.947632 285.088226,410.029968 284.381226,410.118286 
	C284.883087,409.447296 285.691620,408.770294 286.863342,408.130585 
	C286.886017,408.586090 286.545502,409.004303 286.046936,409.643921 
z"/>
<path fill="#E74A4B" opacity="1.000000" stroke="none" 
	d="
M276.054749,283.488647 
	C276.053497,283.726318 276.078461,284.003448 276.103455,284.280579 
	C276.085693,284.127686 276.067932,283.974762 276.032318,283.643646 
	C276.014496,283.465424 276.080994,283.528076 276.054749,283.488647 
z"/>
<path fill="#E5080A" opacity="1.000000" stroke="none" 
	d="
M503.408813,506.006897 
	C487.869568,506.005859 472.757141,506.005859 457.644714,506.005859 
	C457.643646,505.647369 457.642609,505.288849 457.641571,504.930359 
	C474.045746,504.930359 490.449951,504.930359 506.854126,504.930359 
	C506.880402,505.156281 506.906647,505.382202 506.932892,505.608124 
	C505.900482,505.741394 504.868042,505.874695 503.408813,506.006897 
z"/>
<path fill="#E73132" opacity="1.000000" stroke="none" 
	d="
M419.629547,501.027222 
	C420.250488,501.524780 420.566833,501.970154 420.980957,502.671814 
	C420.280121,503.241821 419.481506,503.555542 418.363403,503.906036 
	C418.048004,503.148743 418.052032,502.354736 418.083618,501.162964 
	C418.515717,500.835205 418.920319,500.905151 419.629547,501.027222 
z"/>
<path fill="#E73132" opacity="1.000000" stroke="none" 
	d="
M386.603943,480.062683 
	C387.276611,480.532043 387.648682,480.947937 388.173218,481.600403 
	C387.289215,481.383301 386.252838,480.929596 385.167297,480.105133 
	C385.513184,479.825989 385.908295,479.917633 386.603943,480.062683 
z"/>
<path fill="#E73132" opacity="1.000000" stroke="none" 
	d="
M373.133026,473.052795 
	C373.601166,473.031464 374.064209,473.326538 374.759155,473.777527 
	C374.653748,474.360962 374.316467,474.788513 373.979126,475.216003 
	C373.695404,474.600403 373.411652,473.984833 373.133026,473.052795 
z"/>
</svg>